G04 #@! TF.GenerationSoftware,KiCad,Pcbnew,7.0.6*
G04 #@! TF.CreationDate,2023-07-19T00:55:54+09:00*
G04 #@! TF.ProjectId,NES_MAmi,4e45535f-4d41-46d6-992e-6b696361645f,rev?*
G04 #@! TF.SameCoordinates,Original*
G04 #@! TF.FileFunction,Legend,Top*
G04 #@! TF.FilePolarity,Positive*
%FSLAX46Y46*%
G04 Gerber Fmt 4.6, Leading zero omitted, Abs format (unit mm)*
G04 Created by KiCad (PCBNEW 7.0.6) date 2023-07-19 00:55:54*
%MOMM*%
%LPD*%
G01*
G04 APERTURE LIST*
%ADD10C,0.150000*%
%ADD11C,0.120000*%
%ADD12C,0.127000*%
%ADD13C,0.200000*%
G04 APERTURE END LIST*
D10*
X123736779Y-113635809D02*
X124070112Y-113635809D01*
X124212969Y-114159619D02*
X123736779Y-114159619D01*
X123736779Y-114159619D02*
X123736779Y-113159619D01*
X123736779Y-113159619D02*
X124212969Y-113159619D01*
X124641541Y-114159619D02*
X124641541Y-113159619D01*
X124641541Y-113159619D02*
X125022493Y-113159619D01*
X125022493Y-113159619D02*
X125117731Y-113207238D01*
X125117731Y-113207238D02*
X125165350Y-113254857D01*
X125165350Y-113254857D02*
X125212969Y-113350095D01*
X125212969Y-113350095D02*
X125212969Y-113492952D01*
X125212969Y-113492952D02*
X125165350Y-113588190D01*
X125165350Y-113588190D02*
X125117731Y-113635809D01*
X125117731Y-113635809D02*
X125022493Y-113683428D01*
X125022493Y-113683428D02*
X124641541Y-113683428D01*
X126212969Y-114159619D02*
X125879636Y-113683428D01*
X125641541Y-114159619D02*
X125641541Y-113159619D01*
X125641541Y-113159619D02*
X126022493Y-113159619D01*
X126022493Y-113159619D02*
X126117731Y-113207238D01*
X126117731Y-113207238D02*
X126165350Y-113254857D01*
X126165350Y-113254857D02*
X126212969Y-113350095D01*
X126212969Y-113350095D02*
X126212969Y-113492952D01*
X126212969Y-113492952D02*
X126165350Y-113588190D01*
X126165350Y-113588190D02*
X126117731Y-113635809D01*
X126117731Y-113635809D02*
X126022493Y-113683428D01*
X126022493Y-113683428D02*
X125641541Y-113683428D01*
X126832017Y-113159619D02*
X127022493Y-113159619D01*
X127022493Y-113159619D02*
X127117731Y-113207238D01*
X127117731Y-113207238D02*
X127212969Y-113302476D01*
X127212969Y-113302476D02*
X127260588Y-113492952D01*
X127260588Y-113492952D02*
X127260588Y-113826285D01*
X127260588Y-113826285D02*
X127212969Y-114016761D01*
X127212969Y-114016761D02*
X127117731Y-114112000D01*
X127117731Y-114112000D02*
X127022493Y-114159619D01*
X127022493Y-114159619D02*
X126832017Y-114159619D01*
X126832017Y-114159619D02*
X126736779Y-114112000D01*
X126736779Y-114112000D02*
X126641541Y-114016761D01*
X126641541Y-114016761D02*
X126593922Y-113826285D01*
X126593922Y-113826285D02*
X126593922Y-113492952D01*
X126593922Y-113492952D02*
X126641541Y-113302476D01*
X126641541Y-113302476D02*
X126736779Y-113207238D01*
X126736779Y-113207238D02*
X126832017Y-113159619D01*
X127689160Y-114159619D02*
X127689160Y-113159619D01*
X127689160Y-113159619D02*
X128022493Y-113873904D01*
X128022493Y-113873904D02*
X128355826Y-113159619D01*
X128355826Y-113159619D02*
X128355826Y-114159619D01*
X129546303Y-113254857D02*
X129593922Y-113207238D01*
X129593922Y-113207238D02*
X129689160Y-113159619D01*
X129689160Y-113159619D02*
X129927255Y-113159619D01*
X129927255Y-113159619D02*
X130022493Y-113207238D01*
X130022493Y-113207238D02*
X130070112Y-113254857D01*
X130070112Y-113254857D02*
X130117731Y-113350095D01*
X130117731Y-113350095D02*
X130117731Y-113445333D01*
X130117731Y-113445333D02*
X130070112Y-113588190D01*
X130070112Y-113588190D02*
X129498684Y-114159619D01*
X129498684Y-114159619D02*
X130117731Y-114159619D01*
X130451065Y-113159619D02*
X131117731Y-113159619D01*
X131117731Y-113159619D02*
X130689160Y-114159619D01*
X132070112Y-114064380D02*
X132022493Y-114112000D01*
X132022493Y-114112000D02*
X131879636Y-114159619D01*
X131879636Y-114159619D02*
X131784398Y-114159619D01*
X131784398Y-114159619D02*
X131641541Y-114112000D01*
X131641541Y-114112000D02*
X131546303Y-114016761D01*
X131546303Y-114016761D02*
X131498684Y-113921523D01*
X131498684Y-113921523D02*
X131451065Y-113731047D01*
X131451065Y-113731047D02*
X131451065Y-113588190D01*
X131451065Y-113588190D02*
X131498684Y-113397714D01*
X131498684Y-113397714D02*
X131546303Y-113302476D01*
X131546303Y-113302476D02*
X131641541Y-113207238D01*
X131641541Y-113207238D02*
X131784398Y-113159619D01*
X131784398Y-113159619D02*
X131879636Y-113159619D01*
X131879636Y-113159619D02*
X132022493Y-113207238D01*
X132022493Y-113207238D02*
X132070112Y-113254857D01*
X132451065Y-113254857D02*
X132498684Y-113207238D01*
X132498684Y-113207238D02*
X132593922Y-113159619D01*
X132593922Y-113159619D02*
X132832017Y-113159619D01*
X132832017Y-113159619D02*
X132927255Y-113207238D01*
X132927255Y-113207238D02*
X132974874Y-113254857D01*
X132974874Y-113254857D02*
X133022493Y-113350095D01*
X133022493Y-113350095D02*
X133022493Y-113445333D01*
X133022493Y-113445333D02*
X132974874Y-113588190D01*
X132974874Y-113588190D02*
X132403446Y-114159619D01*
X132403446Y-114159619D02*
X133022493Y-114159619D01*
X133927255Y-113159619D02*
X133451065Y-113159619D01*
X133451065Y-113159619D02*
X133403446Y-113635809D01*
X133403446Y-113635809D02*
X133451065Y-113588190D01*
X133451065Y-113588190D02*
X133546303Y-113540571D01*
X133546303Y-113540571D02*
X133784398Y-113540571D01*
X133784398Y-113540571D02*
X133879636Y-113588190D01*
X133879636Y-113588190D02*
X133927255Y-113635809D01*
X133927255Y-113635809D02*
X133974874Y-113731047D01*
X133974874Y-113731047D02*
X133974874Y-113969142D01*
X133974874Y-113969142D02*
X133927255Y-114064380D01*
X133927255Y-114064380D02*
X133879636Y-114112000D01*
X133879636Y-114112000D02*
X133784398Y-114159619D01*
X133784398Y-114159619D02*
X133546303Y-114159619D01*
X133546303Y-114159619D02*
X133451065Y-114112000D01*
X133451065Y-114112000D02*
X133403446Y-114064380D01*
X134832017Y-113159619D02*
X134641541Y-113159619D01*
X134641541Y-113159619D02*
X134546303Y-113207238D01*
X134546303Y-113207238D02*
X134498684Y-113254857D01*
X134498684Y-113254857D02*
X134403446Y-113397714D01*
X134403446Y-113397714D02*
X134355827Y-113588190D01*
X134355827Y-113588190D02*
X134355827Y-113969142D01*
X134355827Y-113969142D02*
X134403446Y-114064380D01*
X134403446Y-114064380D02*
X134451065Y-114112000D01*
X134451065Y-114112000D02*
X134546303Y-114159619D01*
X134546303Y-114159619D02*
X134736779Y-114159619D01*
X134736779Y-114159619D02*
X134832017Y-114112000D01*
X134832017Y-114112000D02*
X134879636Y-114064380D01*
X134879636Y-114064380D02*
X134927255Y-113969142D01*
X134927255Y-113969142D02*
X134927255Y-113731047D01*
X134927255Y-113731047D02*
X134879636Y-113635809D01*
X134879636Y-113635809D02*
X134832017Y-113588190D01*
X134832017Y-113588190D02*
X134736779Y-113540571D01*
X134736779Y-113540571D02*
X134546303Y-113540571D01*
X134546303Y-113540571D02*
X134451065Y-113588190D01*
X134451065Y-113588190D02*
X134403446Y-113635809D01*
X134403446Y-113635809D02*
X134355827Y-113731047D01*
X134641541Y-95859619D02*
X135308207Y-95859619D01*
X135308207Y-95859619D02*
X134879636Y-96859619D01*
X136117731Y-96192952D02*
X136117731Y-96859619D01*
X135879636Y-95812000D02*
X135641541Y-96526285D01*
X135641541Y-96526285D02*
X136260588Y-96526285D01*
X137117731Y-96859619D02*
X136641541Y-96859619D01*
X136641541Y-96859619D02*
X136641541Y-95859619D01*
X137403446Y-96812000D02*
X137546303Y-96859619D01*
X137546303Y-96859619D02*
X137784398Y-96859619D01*
X137784398Y-96859619D02*
X137879636Y-96812000D01*
X137879636Y-96812000D02*
X137927255Y-96764380D01*
X137927255Y-96764380D02*
X137974874Y-96669142D01*
X137974874Y-96669142D02*
X137974874Y-96573904D01*
X137974874Y-96573904D02*
X137927255Y-96478666D01*
X137927255Y-96478666D02*
X137879636Y-96431047D01*
X137879636Y-96431047D02*
X137784398Y-96383428D01*
X137784398Y-96383428D02*
X137593922Y-96335809D01*
X137593922Y-96335809D02*
X137498684Y-96288190D01*
X137498684Y-96288190D02*
X137451065Y-96240571D01*
X137451065Y-96240571D02*
X137403446Y-96145333D01*
X137403446Y-96145333D02*
X137403446Y-96050095D01*
X137403446Y-96050095D02*
X137451065Y-95954857D01*
X137451065Y-95954857D02*
X137498684Y-95907238D01*
X137498684Y-95907238D02*
X137593922Y-95859619D01*
X137593922Y-95859619D02*
X137832017Y-95859619D01*
X137832017Y-95859619D02*
X137974874Y-95907238D01*
X138593922Y-95859619D02*
X138689160Y-95859619D01*
X138689160Y-95859619D02*
X138784398Y-95907238D01*
X138784398Y-95907238D02*
X138832017Y-95954857D01*
X138832017Y-95954857D02*
X138879636Y-96050095D01*
X138879636Y-96050095D02*
X138927255Y-96240571D01*
X138927255Y-96240571D02*
X138927255Y-96478666D01*
X138927255Y-96478666D02*
X138879636Y-96669142D01*
X138879636Y-96669142D02*
X138832017Y-96764380D01*
X138832017Y-96764380D02*
X138784398Y-96812000D01*
X138784398Y-96812000D02*
X138689160Y-96859619D01*
X138689160Y-96859619D02*
X138593922Y-96859619D01*
X138593922Y-96859619D02*
X138498684Y-96812000D01*
X138498684Y-96812000D02*
X138451065Y-96764380D01*
X138451065Y-96764380D02*
X138403446Y-96669142D01*
X138403446Y-96669142D02*
X138355827Y-96478666D01*
X138355827Y-96478666D02*
X138355827Y-96240571D01*
X138355827Y-96240571D02*
X138403446Y-96050095D01*
X138403446Y-96050095D02*
X138451065Y-95954857D01*
X138451065Y-95954857D02*
X138498684Y-95907238D01*
X138498684Y-95907238D02*
X138593922Y-95859619D01*
X139546303Y-95859619D02*
X139641541Y-95859619D01*
X139641541Y-95859619D02*
X139736779Y-95907238D01*
X139736779Y-95907238D02*
X139784398Y-95954857D01*
X139784398Y-95954857D02*
X139832017Y-96050095D01*
X139832017Y-96050095D02*
X139879636Y-96240571D01*
X139879636Y-96240571D02*
X139879636Y-96478666D01*
X139879636Y-96478666D02*
X139832017Y-96669142D01*
X139832017Y-96669142D02*
X139784398Y-96764380D01*
X139784398Y-96764380D02*
X139736779Y-96812000D01*
X139736779Y-96812000D02*
X139641541Y-96859619D01*
X139641541Y-96859619D02*
X139546303Y-96859619D01*
X139546303Y-96859619D02*
X139451065Y-96812000D01*
X139451065Y-96812000D02*
X139403446Y-96764380D01*
X139403446Y-96764380D02*
X139355827Y-96669142D01*
X139355827Y-96669142D02*
X139308208Y-96478666D01*
X139308208Y-96478666D02*
X139308208Y-96240571D01*
X139308208Y-96240571D02*
X139355827Y-96050095D01*
X139355827Y-96050095D02*
X139403446Y-95954857D01*
X139403446Y-95954857D02*
X139451065Y-95907238D01*
X139451065Y-95907238D02*
X139546303Y-95859619D01*
X164136779Y-113635809D02*
X164470112Y-113635809D01*
X164612969Y-114159619D02*
X164136779Y-114159619D01*
X164136779Y-114159619D02*
X164136779Y-113159619D01*
X164136779Y-113159619D02*
X164612969Y-113159619D01*
X165041541Y-114159619D02*
X165041541Y-113159619D01*
X165041541Y-113159619D02*
X165422493Y-113159619D01*
X165422493Y-113159619D02*
X165517731Y-113207238D01*
X165517731Y-113207238D02*
X165565350Y-113254857D01*
X165565350Y-113254857D02*
X165612969Y-113350095D01*
X165612969Y-113350095D02*
X165612969Y-113492952D01*
X165612969Y-113492952D02*
X165565350Y-113588190D01*
X165565350Y-113588190D02*
X165517731Y-113635809D01*
X165517731Y-113635809D02*
X165422493Y-113683428D01*
X165422493Y-113683428D02*
X165041541Y-113683428D01*
X166612969Y-114159619D02*
X166279636Y-113683428D01*
X166041541Y-114159619D02*
X166041541Y-113159619D01*
X166041541Y-113159619D02*
X166422493Y-113159619D01*
X166422493Y-113159619D02*
X166517731Y-113207238D01*
X166517731Y-113207238D02*
X166565350Y-113254857D01*
X166565350Y-113254857D02*
X166612969Y-113350095D01*
X166612969Y-113350095D02*
X166612969Y-113492952D01*
X166612969Y-113492952D02*
X166565350Y-113588190D01*
X166565350Y-113588190D02*
X166517731Y-113635809D01*
X166517731Y-113635809D02*
X166422493Y-113683428D01*
X166422493Y-113683428D02*
X166041541Y-113683428D01*
X167232017Y-113159619D02*
X167422493Y-113159619D01*
X167422493Y-113159619D02*
X167517731Y-113207238D01*
X167517731Y-113207238D02*
X167612969Y-113302476D01*
X167612969Y-113302476D02*
X167660588Y-113492952D01*
X167660588Y-113492952D02*
X167660588Y-113826285D01*
X167660588Y-113826285D02*
X167612969Y-114016761D01*
X167612969Y-114016761D02*
X167517731Y-114112000D01*
X167517731Y-114112000D02*
X167422493Y-114159619D01*
X167422493Y-114159619D02*
X167232017Y-114159619D01*
X167232017Y-114159619D02*
X167136779Y-114112000D01*
X167136779Y-114112000D02*
X167041541Y-114016761D01*
X167041541Y-114016761D02*
X166993922Y-113826285D01*
X166993922Y-113826285D02*
X166993922Y-113492952D01*
X166993922Y-113492952D02*
X167041541Y-113302476D01*
X167041541Y-113302476D02*
X167136779Y-113207238D01*
X167136779Y-113207238D02*
X167232017Y-113159619D01*
X168089160Y-114159619D02*
X168089160Y-113159619D01*
X168089160Y-113159619D02*
X168422493Y-113873904D01*
X168422493Y-113873904D02*
X168755826Y-113159619D01*
X168755826Y-113159619D02*
X168755826Y-114159619D01*
X169946303Y-113254857D02*
X169993922Y-113207238D01*
X169993922Y-113207238D02*
X170089160Y-113159619D01*
X170089160Y-113159619D02*
X170327255Y-113159619D01*
X170327255Y-113159619D02*
X170422493Y-113207238D01*
X170422493Y-113207238D02*
X170470112Y-113254857D01*
X170470112Y-113254857D02*
X170517731Y-113350095D01*
X170517731Y-113350095D02*
X170517731Y-113445333D01*
X170517731Y-113445333D02*
X170470112Y-113588190D01*
X170470112Y-113588190D02*
X169898684Y-114159619D01*
X169898684Y-114159619D02*
X170517731Y-114159619D01*
X170851065Y-113159619D02*
X171517731Y-113159619D01*
X171517731Y-113159619D02*
X171089160Y-114159619D01*
X172470112Y-114064380D02*
X172422493Y-114112000D01*
X172422493Y-114112000D02*
X172279636Y-114159619D01*
X172279636Y-114159619D02*
X172184398Y-114159619D01*
X172184398Y-114159619D02*
X172041541Y-114112000D01*
X172041541Y-114112000D02*
X171946303Y-114016761D01*
X171946303Y-114016761D02*
X171898684Y-113921523D01*
X171898684Y-113921523D02*
X171851065Y-113731047D01*
X171851065Y-113731047D02*
X171851065Y-113588190D01*
X171851065Y-113588190D02*
X171898684Y-113397714D01*
X171898684Y-113397714D02*
X171946303Y-113302476D01*
X171946303Y-113302476D02*
X172041541Y-113207238D01*
X172041541Y-113207238D02*
X172184398Y-113159619D01*
X172184398Y-113159619D02*
X172279636Y-113159619D01*
X172279636Y-113159619D02*
X172422493Y-113207238D01*
X172422493Y-113207238D02*
X172470112Y-113254857D01*
X173327255Y-113159619D02*
X173136779Y-113159619D01*
X173136779Y-113159619D02*
X173041541Y-113207238D01*
X173041541Y-113207238D02*
X172993922Y-113254857D01*
X172993922Y-113254857D02*
X172898684Y-113397714D01*
X172898684Y-113397714D02*
X172851065Y-113588190D01*
X172851065Y-113588190D02*
X172851065Y-113969142D01*
X172851065Y-113969142D02*
X172898684Y-114064380D01*
X172898684Y-114064380D02*
X172946303Y-114112000D01*
X172946303Y-114112000D02*
X173041541Y-114159619D01*
X173041541Y-114159619D02*
X173232017Y-114159619D01*
X173232017Y-114159619D02*
X173327255Y-114112000D01*
X173327255Y-114112000D02*
X173374874Y-114064380D01*
X173374874Y-114064380D02*
X173422493Y-113969142D01*
X173422493Y-113969142D02*
X173422493Y-113731047D01*
X173422493Y-113731047D02*
X173374874Y-113635809D01*
X173374874Y-113635809D02*
X173327255Y-113588190D01*
X173327255Y-113588190D02*
X173232017Y-113540571D01*
X173232017Y-113540571D02*
X173041541Y-113540571D01*
X173041541Y-113540571D02*
X172946303Y-113588190D01*
X172946303Y-113588190D02*
X172898684Y-113635809D01*
X172898684Y-113635809D02*
X172851065Y-113731047D01*
X174279636Y-113492952D02*
X174279636Y-114159619D01*
X174041541Y-113112000D02*
X173803446Y-113826285D01*
X173803446Y-113826285D02*
X174422493Y-113826285D01*
X169468922Y-84309619D02*
X169802255Y-85309619D01*
X169802255Y-85309619D02*
X170135588Y-84309619D01*
X171040350Y-85309619D02*
X170707017Y-84833428D01*
X170468922Y-85309619D02*
X170468922Y-84309619D01*
X170468922Y-84309619D02*
X170849874Y-84309619D01*
X170849874Y-84309619D02*
X170945112Y-84357238D01*
X170945112Y-84357238D02*
X170992731Y-84404857D01*
X170992731Y-84404857D02*
X171040350Y-84500095D01*
X171040350Y-84500095D02*
X171040350Y-84642952D01*
X171040350Y-84642952D02*
X170992731Y-84738190D01*
X170992731Y-84738190D02*
X170945112Y-84785809D01*
X170945112Y-84785809D02*
X170849874Y-84833428D01*
X170849874Y-84833428D02*
X170468922Y-84833428D01*
X172040350Y-85214380D02*
X171992731Y-85262000D01*
X171992731Y-85262000D02*
X171849874Y-85309619D01*
X171849874Y-85309619D02*
X171754636Y-85309619D01*
X171754636Y-85309619D02*
X171611779Y-85262000D01*
X171611779Y-85262000D02*
X171516541Y-85166761D01*
X171516541Y-85166761D02*
X171468922Y-85071523D01*
X171468922Y-85071523D02*
X171421303Y-84881047D01*
X171421303Y-84881047D02*
X171421303Y-84738190D01*
X171421303Y-84738190D02*
X171468922Y-84547714D01*
X171468922Y-84547714D02*
X171516541Y-84452476D01*
X171516541Y-84452476D02*
X171611779Y-84357238D01*
X171611779Y-84357238D02*
X171754636Y-84309619D01*
X171754636Y-84309619D02*
X171849874Y-84309619D01*
X171849874Y-84309619D02*
X171992731Y-84357238D01*
X171992731Y-84357238D02*
X172040350Y-84404857D01*
X173802255Y-85214380D02*
X173754636Y-85262000D01*
X173754636Y-85262000D02*
X173611779Y-85309619D01*
X173611779Y-85309619D02*
X173516541Y-85309619D01*
X173516541Y-85309619D02*
X173373684Y-85262000D01*
X173373684Y-85262000D02*
X173278446Y-85166761D01*
X173278446Y-85166761D02*
X173230827Y-85071523D01*
X173230827Y-85071523D02*
X173183208Y-84881047D01*
X173183208Y-84881047D02*
X173183208Y-84738190D01*
X173183208Y-84738190D02*
X173230827Y-84547714D01*
X173230827Y-84547714D02*
X173278446Y-84452476D01*
X173278446Y-84452476D02*
X173373684Y-84357238D01*
X173373684Y-84357238D02*
X173516541Y-84309619D01*
X173516541Y-84309619D02*
X173611779Y-84309619D01*
X173611779Y-84309619D02*
X173754636Y-84357238D01*
X173754636Y-84357238D02*
X173802255Y-84404857D01*
X174183208Y-85023904D02*
X174659398Y-85023904D01*
X174087970Y-85309619D02*
X174421303Y-84309619D01*
X174421303Y-84309619D02*
X174754636Y-85309619D01*
X175659398Y-85309619D02*
X175326065Y-84833428D01*
X175087970Y-85309619D02*
X175087970Y-84309619D01*
X175087970Y-84309619D02*
X175468922Y-84309619D01*
X175468922Y-84309619D02*
X175564160Y-84357238D01*
X175564160Y-84357238D02*
X175611779Y-84404857D01*
X175611779Y-84404857D02*
X175659398Y-84500095D01*
X175659398Y-84500095D02*
X175659398Y-84642952D01*
X175659398Y-84642952D02*
X175611779Y-84738190D01*
X175611779Y-84738190D02*
X175564160Y-84785809D01*
X175564160Y-84785809D02*
X175468922Y-84833428D01*
X175468922Y-84833428D02*
X175087970Y-84833428D01*
X175945113Y-84309619D02*
X176516541Y-84309619D01*
X176230827Y-85309619D02*
X176230827Y-84309619D01*
X177945113Y-84785809D02*
X177611780Y-84785809D01*
X177611780Y-85309619D02*
X177611780Y-84309619D01*
X177611780Y-84309619D02*
X178087970Y-84309619D01*
X179040351Y-85309619D02*
X178707018Y-84833428D01*
X178468923Y-85309619D02*
X178468923Y-84309619D01*
X178468923Y-84309619D02*
X178849875Y-84309619D01*
X178849875Y-84309619D02*
X178945113Y-84357238D01*
X178945113Y-84357238D02*
X178992732Y-84404857D01*
X178992732Y-84404857D02*
X179040351Y-84500095D01*
X179040351Y-84500095D02*
X179040351Y-84642952D01*
X179040351Y-84642952D02*
X178992732Y-84738190D01*
X178992732Y-84738190D02*
X178945113Y-84785809D01*
X178945113Y-84785809D02*
X178849875Y-84833428D01*
X178849875Y-84833428D02*
X178468923Y-84833428D01*
X179659399Y-84309619D02*
X179849875Y-84309619D01*
X179849875Y-84309619D02*
X179945113Y-84357238D01*
X179945113Y-84357238D02*
X180040351Y-84452476D01*
X180040351Y-84452476D02*
X180087970Y-84642952D01*
X180087970Y-84642952D02*
X180087970Y-84976285D01*
X180087970Y-84976285D02*
X180040351Y-85166761D01*
X180040351Y-85166761D02*
X179945113Y-85262000D01*
X179945113Y-85262000D02*
X179849875Y-85309619D01*
X179849875Y-85309619D02*
X179659399Y-85309619D01*
X179659399Y-85309619D02*
X179564161Y-85262000D01*
X179564161Y-85262000D02*
X179468923Y-85166761D01*
X179468923Y-85166761D02*
X179421304Y-84976285D01*
X179421304Y-84976285D02*
X179421304Y-84642952D01*
X179421304Y-84642952D02*
X179468923Y-84452476D01*
X179468923Y-84452476D02*
X179564161Y-84357238D01*
X179564161Y-84357238D02*
X179659399Y-84309619D01*
X180516542Y-85309619D02*
X180516542Y-84309619D01*
X180516542Y-84309619D02*
X181087970Y-85309619D01*
X181087970Y-85309619D02*
X181087970Y-84309619D01*
X181421304Y-84309619D02*
X181992732Y-84309619D01*
X181707018Y-85309619D02*
X181707018Y-84309619D01*
X183040352Y-85262000D02*
X183183209Y-85309619D01*
X183183209Y-85309619D02*
X183421304Y-85309619D01*
X183421304Y-85309619D02*
X183516542Y-85262000D01*
X183516542Y-85262000D02*
X183564161Y-85214380D01*
X183564161Y-85214380D02*
X183611780Y-85119142D01*
X183611780Y-85119142D02*
X183611780Y-85023904D01*
X183611780Y-85023904D02*
X183564161Y-84928666D01*
X183564161Y-84928666D02*
X183516542Y-84881047D01*
X183516542Y-84881047D02*
X183421304Y-84833428D01*
X183421304Y-84833428D02*
X183230828Y-84785809D01*
X183230828Y-84785809D02*
X183135590Y-84738190D01*
X183135590Y-84738190D02*
X183087971Y-84690571D01*
X183087971Y-84690571D02*
X183040352Y-84595333D01*
X183040352Y-84595333D02*
X183040352Y-84500095D01*
X183040352Y-84500095D02*
X183087971Y-84404857D01*
X183087971Y-84404857D02*
X183135590Y-84357238D01*
X183135590Y-84357238D02*
X183230828Y-84309619D01*
X183230828Y-84309619D02*
X183468923Y-84309619D01*
X183468923Y-84309619D02*
X183611780Y-84357238D01*
X184040352Y-85309619D02*
X184040352Y-84309619D01*
X184516542Y-85309619D02*
X184516542Y-84309619D01*
X184516542Y-84309619D02*
X184754637Y-84309619D01*
X184754637Y-84309619D02*
X184897494Y-84357238D01*
X184897494Y-84357238D02*
X184992732Y-84452476D01*
X184992732Y-84452476D02*
X185040351Y-84547714D01*
X185040351Y-84547714D02*
X185087970Y-84738190D01*
X185087970Y-84738190D02*
X185087970Y-84881047D01*
X185087970Y-84881047D02*
X185040351Y-85071523D01*
X185040351Y-85071523D02*
X184992732Y-85166761D01*
X184992732Y-85166761D02*
X184897494Y-85262000D01*
X184897494Y-85262000D02*
X184754637Y-85309619D01*
X184754637Y-85309619D02*
X184516542Y-85309619D01*
X185516542Y-84785809D02*
X185849875Y-84785809D01*
X185992732Y-85309619D02*
X185516542Y-85309619D01*
X185516542Y-85309619D02*
X185516542Y-84309619D01*
X185516542Y-84309619D02*
X185992732Y-84309619D01*
X144710000Y-72616619D02*
X145043333Y-73616619D01*
X145043333Y-73616619D02*
X145376666Y-72616619D01*
X146281428Y-73616619D02*
X145948095Y-73140428D01*
X145710000Y-73616619D02*
X145710000Y-72616619D01*
X145710000Y-72616619D02*
X146090952Y-72616619D01*
X146090952Y-72616619D02*
X146186190Y-72664238D01*
X146186190Y-72664238D02*
X146233809Y-72711857D01*
X146233809Y-72711857D02*
X146281428Y-72807095D01*
X146281428Y-72807095D02*
X146281428Y-72949952D01*
X146281428Y-72949952D02*
X146233809Y-73045190D01*
X146233809Y-73045190D02*
X146186190Y-73092809D01*
X146186190Y-73092809D02*
X146090952Y-73140428D01*
X146090952Y-73140428D02*
X145710000Y-73140428D01*
X147281428Y-73521380D02*
X147233809Y-73569000D01*
X147233809Y-73569000D02*
X147090952Y-73616619D01*
X147090952Y-73616619D02*
X146995714Y-73616619D01*
X146995714Y-73616619D02*
X146852857Y-73569000D01*
X146852857Y-73569000D02*
X146757619Y-73473761D01*
X146757619Y-73473761D02*
X146710000Y-73378523D01*
X146710000Y-73378523D02*
X146662381Y-73188047D01*
X146662381Y-73188047D02*
X146662381Y-73045190D01*
X146662381Y-73045190D02*
X146710000Y-72854714D01*
X146710000Y-72854714D02*
X146757619Y-72759476D01*
X146757619Y-72759476D02*
X146852857Y-72664238D01*
X146852857Y-72664238D02*
X146995714Y-72616619D01*
X146995714Y-72616619D02*
X147090952Y-72616619D01*
X147090952Y-72616619D02*
X147233809Y-72664238D01*
X147233809Y-72664238D02*
X147281428Y-72711857D01*
X147471905Y-73711857D02*
X148233809Y-73711857D01*
X149043333Y-73521380D02*
X148995714Y-73569000D01*
X148995714Y-73569000D02*
X148852857Y-73616619D01*
X148852857Y-73616619D02*
X148757619Y-73616619D01*
X148757619Y-73616619D02*
X148614762Y-73569000D01*
X148614762Y-73569000D02*
X148519524Y-73473761D01*
X148519524Y-73473761D02*
X148471905Y-73378523D01*
X148471905Y-73378523D02*
X148424286Y-73188047D01*
X148424286Y-73188047D02*
X148424286Y-73045190D01*
X148424286Y-73045190D02*
X148471905Y-72854714D01*
X148471905Y-72854714D02*
X148519524Y-72759476D01*
X148519524Y-72759476D02*
X148614762Y-72664238D01*
X148614762Y-72664238D02*
X148757619Y-72616619D01*
X148757619Y-72616619D02*
X148852857Y-72616619D01*
X148852857Y-72616619D02*
X148995714Y-72664238D01*
X148995714Y-72664238D02*
X149043333Y-72711857D01*
X149424286Y-73330904D02*
X149900476Y-73330904D01*
X149329048Y-73616619D02*
X149662381Y-72616619D01*
X149662381Y-72616619D02*
X149995714Y-73616619D01*
X150900476Y-73616619D02*
X150567143Y-73140428D01*
X150329048Y-73616619D02*
X150329048Y-72616619D01*
X150329048Y-72616619D02*
X150710000Y-72616619D01*
X150710000Y-72616619D02*
X150805238Y-72664238D01*
X150805238Y-72664238D02*
X150852857Y-72711857D01*
X150852857Y-72711857D02*
X150900476Y-72807095D01*
X150900476Y-72807095D02*
X150900476Y-72949952D01*
X150900476Y-72949952D02*
X150852857Y-73045190D01*
X150852857Y-73045190D02*
X150805238Y-73092809D01*
X150805238Y-73092809D02*
X150710000Y-73140428D01*
X150710000Y-73140428D02*
X150329048Y-73140428D01*
X151186191Y-72616619D02*
X151757619Y-72616619D01*
X151471905Y-73616619D02*
X151471905Y-72616619D01*
X152614762Y-73616619D02*
X152043334Y-73616619D01*
X152329048Y-73616619D02*
X152329048Y-72616619D01*
X152329048Y-72616619D02*
X152233810Y-72759476D01*
X152233810Y-72759476D02*
X152138572Y-72854714D01*
X152138572Y-72854714D02*
X152043334Y-72902333D01*
X150149580Y-115455514D02*
X150197200Y-115503133D01*
X150197200Y-115503133D02*
X150244819Y-115645990D01*
X150244819Y-115645990D02*
X150244819Y-115741228D01*
X150244819Y-115741228D02*
X150197200Y-115884085D01*
X150197200Y-115884085D02*
X150101961Y-115979323D01*
X150101961Y-115979323D02*
X150006723Y-116026942D01*
X150006723Y-116026942D02*
X149816247Y-116074561D01*
X149816247Y-116074561D02*
X149673390Y-116074561D01*
X149673390Y-116074561D02*
X149482914Y-116026942D01*
X149482914Y-116026942D02*
X149387676Y-115979323D01*
X149387676Y-115979323D02*
X149292438Y-115884085D01*
X149292438Y-115884085D02*
X149244819Y-115741228D01*
X149244819Y-115741228D02*
X149244819Y-115645990D01*
X149244819Y-115645990D02*
X149292438Y-115503133D01*
X149292438Y-115503133D02*
X149340057Y-115455514D01*
X150244819Y-115026942D02*
X149244819Y-115026942D01*
X149721009Y-115026942D02*
X149721009Y-114455514D01*
X150244819Y-114455514D02*
X149244819Y-114455514D01*
X150244819Y-113407895D02*
X149768628Y-113741228D01*
X150244819Y-113979323D02*
X149244819Y-113979323D01*
X149244819Y-113979323D02*
X149244819Y-113598371D01*
X149244819Y-113598371D02*
X149292438Y-113503133D01*
X149292438Y-113503133D02*
X149340057Y-113455514D01*
X149340057Y-113455514D02*
X149435295Y-113407895D01*
X149435295Y-113407895D02*
X149578152Y-113407895D01*
X149578152Y-113407895D02*
X149673390Y-113455514D01*
X149673390Y-113455514D02*
X149721009Y-113503133D01*
X149721009Y-113503133D02*
X149768628Y-113598371D01*
X149768628Y-113598371D02*
X149768628Y-113979323D01*
X150244819Y-112407895D02*
X149768628Y-112741228D01*
X150244819Y-112979323D02*
X149244819Y-112979323D01*
X149244819Y-112979323D02*
X149244819Y-112598371D01*
X149244819Y-112598371D02*
X149292438Y-112503133D01*
X149292438Y-112503133D02*
X149340057Y-112455514D01*
X149340057Y-112455514D02*
X149435295Y-112407895D01*
X149435295Y-112407895D02*
X149578152Y-112407895D01*
X149578152Y-112407895D02*
X149673390Y-112455514D01*
X149673390Y-112455514D02*
X149721009Y-112503133D01*
X149721009Y-112503133D02*
X149768628Y-112598371D01*
X149768628Y-112598371D02*
X149768628Y-112979323D01*
X149244819Y-111788847D02*
X149244819Y-111598371D01*
X149244819Y-111598371D02*
X149292438Y-111503133D01*
X149292438Y-111503133D02*
X149387676Y-111407895D01*
X149387676Y-111407895D02*
X149578152Y-111360276D01*
X149578152Y-111360276D02*
X149911485Y-111360276D01*
X149911485Y-111360276D02*
X150101961Y-111407895D01*
X150101961Y-111407895D02*
X150197200Y-111503133D01*
X150197200Y-111503133D02*
X150244819Y-111598371D01*
X150244819Y-111598371D02*
X150244819Y-111788847D01*
X150244819Y-111788847D02*
X150197200Y-111884085D01*
X150197200Y-111884085D02*
X150101961Y-111979323D01*
X150101961Y-111979323D02*
X149911485Y-112026942D01*
X149911485Y-112026942D02*
X149578152Y-112026942D01*
X149578152Y-112026942D02*
X149387676Y-111979323D01*
X149387676Y-111979323D02*
X149292438Y-111884085D01*
X149292438Y-111884085D02*
X149244819Y-111788847D01*
X150244819Y-110931704D02*
X149244819Y-110931704D01*
X149244819Y-110931704D02*
X149959104Y-110598371D01*
X149959104Y-110598371D02*
X149244819Y-110265038D01*
X149244819Y-110265038D02*
X150244819Y-110265038D01*
X150244819Y-109265038D02*
X150244819Y-109836466D01*
X150244819Y-109550752D02*
X149244819Y-109550752D01*
X149244819Y-109550752D02*
X149387676Y-109645990D01*
X149387676Y-109645990D02*
X149482914Y-109741228D01*
X149482914Y-109741228D02*
X149530533Y-109836466D01*
X182058333Y-97494619D02*
X181725000Y-97018428D01*
X181486905Y-97494619D02*
X181486905Y-96494619D01*
X181486905Y-96494619D02*
X181867857Y-96494619D01*
X181867857Y-96494619D02*
X181963095Y-96542238D01*
X181963095Y-96542238D02*
X182010714Y-96589857D01*
X182010714Y-96589857D02*
X182058333Y-96685095D01*
X182058333Y-96685095D02*
X182058333Y-96827952D01*
X182058333Y-96827952D02*
X182010714Y-96923190D01*
X182010714Y-96923190D02*
X181963095Y-96970809D01*
X181963095Y-96970809D02*
X181867857Y-97018428D01*
X181867857Y-97018428D02*
X181486905Y-97018428D01*
X182391667Y-96494619D02*
X183010714Y-96494619D01*
X183010714Y-96494619D02*
X182677381Y-96875571D01*
X182677381Y-96875571D02*
X182820238Y-96875571D01*
X182820238Y-96875571D02*
X182915476Y-96923190D01*
X182915476Y-96923190D02*
X182963095Y-96970809D01*
X182963095Y-96970809D02*
X183010714Y-97066047D01*
X183010714Y-97066047D02*
X183010714Y-97304142D01*
X183010714Y-97304142D02*
X182963095Y-97399380D01*
X182963095Y-97399380D02*
X182915476Y-97447000D01*
X182915476Y-97447000D02*
X182820238Y-97494619D01*
X182820238Y-97494619D02*
X182534524Y-97494619D01*
X182534524Y-97494619D02*
X182439286Y-97447000D01*
X182439286Y-97447000D02*
X182391667Y-97399380D01*
X125599819Y-97906704D02*
X126409342Y-97906704D01*
X126409342Y-97906704D02*
X126504580Y-97859085D01*
X126504580Y-97859085D02*
X126552200Y-97811466D01*
X126552200Y-97811466D02*
X126599819Y-97716228D01*
X126599819Y-97716228D02*
X126599819Y-97525752D01*
X126599819Y-97525752D02*
X126552200Y-97430514D01*
X126552200Y-97430514D02*
X126504580Y-97382895D01*
X126504580Y-97382895D02*
X126409342Y-97335276D01*
X126409342Y-97335276D02*
X125599819Y-97335276D01*
X126599819Y-96335276D02*
X126599819Y-96906704D01*
X126599819Y-96620990D02*
X125599819Y-96620990D01*
X125599819Y-96620990D02*
X125742676Y-96716228D01*
X125742676Y-96716228D02*
X125837914Y-96811466D01*
X125837914Y-96811466D02*
X125885533Y-96906704D01*
X149759580Y-99456466D02*
X149807200Y-99504085D01*
X149807200Y-99504085D02*
X149854819Y-99646942D01*
X149854819Y-99646942D02*
X149854819Y-99742180D01*
X149854819Y-99742180D02*
X149807200Y-99885037D01*
X149807200Y-99885037D02*
X149711961Y-99980275D01*
X149711961Y-99980275D02*
X149616723Y-100027894D01*
X149616723Y-100027894D02*
X149426247Y-100075513D01*
X149426247Y-100075513D02*
X149283390Y-100075513D01*
X149283390Y-100075513D02*
X149092914Y-100027894D01*
X149092914Y-100027894D02*
X148997676Y-99980275D01*
X148997676Y-99980275D02*
X148902438Y-99885037D01*
X148902438Y-99885037D02*
X148854819Y-99742180D01*
X148854819Y-99742180D02*
X148854819Y-99646942D01*
X148854819Y-99646942D02*
X148902438Y-99504085D01*
X148902438Y-99504085D02*
X148950057Y-99456466D01*
X149854819Y-98504085D02*
X149854819Y-99075513D01*
X149854819Y-98789799D02*
X148854819Y-98789799D01*
X148854819Y-98789799D02*
X148997676Y-98885037D01*
X148997676Y-98885037D02*
X149092914Y-98980275D01*
X149092914Y-98980275D02*
X149140533Y-99075513D01*
X182058333Y-92419619D02*
X181725000Y-91943428D01*
X181486905Y-92419619D02*
X181486905Y-91419619D01*
X181486905Y-91419619D02*
X181867857Y-91419619D01*
X181867857Y-91419619D02*
X181963095Y-91467238D01*
X181963095Y-91467238D02*
X182010714Y-91514857D01*
X182010714Y-91514857D02*
X182058333Y-91610095D01*
X182058333Y-91610095D02*
X182058333Y-91752952D01*
X182058333Y-91752952D02*
X182010714Y-91848190D01*
X182010714Y-91848190D02*
X181963095Y-91895809D01*
X181963095Y-91895809D02*
X181867857Y-91943428D01*
X181867857Y-91943428D02*
X181486905Y-91943428D01*
X182439286Y-91514857D02*
X182486905Y-91467238D01*
X182486905Y-91467238D02*
X182582143Y-91419619D01*
X182582143Y-91419619D02*
X182820238Y-91419619D01*
X182820238Y-91419619D02*
X182915476Y-91467238D01*
X182915476Y-91467238D02*
X182963095Y-91514857D01*
X182963095Y-91514857D02*
X183010714Y-91610095D01*
X183010714Y-91610095D02*
X183010714Y-91705333D01*
X183010714Y-91705333D02*
X182963095Y-91848190D01*
X182963095Y-91848190D02*
X182391667Y-92419619D01*
X182391667Y-92419619D02*
X183010714Y-92419619D01*
X109759580Y-99456466D02*
X109807200Y-99504085D01*
X109807200Y-99504085D02*
X109854819Y-99646942D01*
X109854819Y-99646942D02*
X109854819Y-99742180D01*
X109854819Y-99742180D02*
X109807200Y-99885037D01*
X109807200Y-99885037D02*
X109711961Y-99980275D01*
X109711961Y-99980275D02*
X109616723Y-100027894D01*
X109616723Y-100027894D02*
X109426247Y-100075513D01*
X109426247Y-100075513D02*
X109283390Y-100075513D01*
X109283390Y-100075513D02*
X109092914Y-100027894D01*
X109092914Y-100027894D02*
X108997676Y-99980275D01*
X108997676Y-99980275D02*
X108902438Y-99885037D01*
X108902438Y-99885037D02*
X108854819Y-99742180D01*
X108854819Y-99742180D02*
X108854819Y-99646942D01*
X108854819Y-99646942D02*
X108902438Y-99504085D01*
X108902438Y-99504085D02*
X108950057Y-99456466D01*
X108950057Y-99075513D02*
X108902438Y-99027894D01*
X108902438Y-99027894D02*
X108854819Y-98932656D01*
X108854819Y-98932656D02*
X108854819Y-98694561D01*
X108854819Y-98694561D02*
X108902438Y-98599323D01*
X108902438Y-98599323D02*
X108950057Y-98551704D01*
X108950057Y-98551704D02*
X109045295Y-98504085D01*
X109045295Y-98504085D02*
X109140533Y-98504085D01*
X109140533Y-98504085D02*
X109283390Y-98551704D01*
X109283390Y-98551704D02*
X109854819Y-99123132D01*
X109854819Y-99123132D02*
X109854819Y-98504085D01*
X109984819Y-116003132D02*
X108984819Y-116003132D01*
X108984819Y-116003132D02*
X108984819Y-115622180D01*
X108984819Y-115622180D02*
X109032438Y-115526942D01*
X109032438Y-115526942D02*
X109080057Y-115479323D01*
X109080057Y-115479323D02*
X109175295Y-115431704D01*
X109175295Y-115431704D02*
X109318152Y-115431704D01*
X109318152Y-115431704D02*
X109413390Y-115479323D01*
X109413390Y-115479323D02*
X109461009Y-115526942D01*
X109461009Y-115526942D02*
X109508628Y-115622180D01*
X109508628Y-115622180D02*
X109508628Y-116003132D01*
X109984819Y-114431704D02*
X109508628Y-114765037D01*
X109984819Y-115003132D02*
X108984819Y-115003132D01*
X108984819Y-115003132D02*
X108984819Y-114622180D01*
X108984819Y-114622180D02*
X109032438Y-114526942D01*
X109032438Y-114526942D02*
X109080057Y-114479323D01*
X109080057Y-114479323D02*
X109175295Y-114431704D01*
X109175295Y-114431704D02*
X109318152Y-114431704D01*
X109318152Y-114431704D02*
X109413390Y-114479323D01*
X109413390Y-114479323D02*
X109461009Y-114526942D01*
X109461009Y-114526942D02*
X109508628Y-114622180D01*
X109508628Y-114622180D02*
X109508628Y-115003132D01*
X109032438Y-113479323D02*
X108984819Y-113574561D01*
X108984819Y-113574561D02*
X108984819Y-113717418D01*
X108984819Y-113717418D02*
X109032438Y-113860275D01*
X109032438Y-113860275D02*
X109127676Y-113955513D01*
X109127676Y-113955513D02*
X109222914Y-114003132D01*
X109222914Y-114003132D02*
X109413390Y-114050751D01*
X109413390Y-114050751D02*
X109556247Y-114050751D01*
X109556247Y-114050751D02*
X109746723Y-114003132D01*
X109746723Y-114003132D02*
X109841961Y-113955513D01*
X109841961Y-113955513D02*
X109937200Y-113860275D01*
X109937200Y-113860275D02*
X109984819Y-113717418D01*
X109984819Y-113717418D02*
X109984819Y-113622180D01*
X109984819Y-113622180D02*
X109937200Y-113479323D01*
X109937200Y-113479323D02*
X109889580Y-113431704D01*
X109889580Y-113431704D02*
X109556247Y-113431704D01*
X109556247Y-113431704D02*
X109556247Y-113622180D01*
X109984819Y-112431704D02*
X109508628Y-112765037D01*
X109984819Y-113003132D02*
X108984819Y-113003132D01*
X108984819Y-113003132D02*
X108984819Y-112622180D01*
X108984819Y-112622180D02*
X109032438Y-112526942D01*
X109032438Y-112526942D02*
X109080057Y-112479323D01*
X109080057Y-112479323D02*
X109175295Y-112431704D01*
X109175295Y-112431704D02*
X109318152Y-112431704D01*
X109318152Y-112431704D02*
X109413390Y-112479323D01*
X109413390Y-112479323D02*
X109461009Y-112526942D01*
X109461009Y-112526942D02*
X109508628Y-112622180D01*
X109508628Y-112622180D02*
X109508628Y-113003132D01*
X108984819Y-111812656D02*
X108984819Y-111622180D01*
X108984819Y-111622180D02*
X109032438Y-111526942D01*
X109032438Y-111526942D02*
X109127676Y-111431704D01*
X109127676Y-111431704D02*
X109318152Y-111384085D01*
X109318152Y-111384085D02*
X109651485Y-111384085D01*
X109651485Y-111384085D02*
X109841961Y-111431704D01*
X109841961Y-111431704D02*
X109937200Y-111526942D01*
X109937200Y-111526942D02*
X109984819Y-111622180D01*
X109984819Y-111622180D02*
X109984819Y-111812656D01*
X109984819Y-111812656D02*
X109937200Y-111907894D01*
X109937200Y-111907894D02*
X109841961Y-112003132D01*
X109841961Y-112003132D02*
X109651485Y-112050751D01*
X109651485Y-112050751D02*
X109318152Y-112050751D01*
X109318152Y-112050751D02*
X109127676Y-112003132D01*
X109127676Y-112003132D02*
X109032438Y-111907894D01*
X109032438Y-111907894D02*
X108984819Y-111812656D01*
X109984819Y-110955513D02*
X108984819Y-110955513D01*
X108984819Y-110955513D02*
X109699104Y-110622180D01*
X109699104Y-110622180D02*
X108984819Y-110288847D01*
X108984819Y-110288847D02*
X109984819Y-110288847D01*
X109984819Y-109288847D02*
X109984819Y-109860275D01*
X109984819Y-109574561D02*
X108984819Y-109574561D01*
X108984819Y-109574561D02*
X109127676Y-109669799D01*
X109127676Y-109669799D02*
X109222914Y-109765037D01*
X109222914Y-109765037D02*
X109270533Y-109860275D01*
X175344328Y-125343442D02*
X175344328Y-124143442D01*
X175344328Y-124143442D02*
X175744328Y-125000585D01*
X175744328Y-125000585D02*
X176144328Y-124143442D01*
X176144328Y-124143442D02*
X176144328Y-125343442D01*
X176658614Y-125000585D02*
X177230043Y-125000585D01*
X176544328Y-125343442D02*
X176944328Y-124143442D01*
X176944328Y-124143442D02*
X177344328Y-125343442D01*
X177744328Y-125343442D02*
X177744328Y-124143442D01*
X177744328Y-124143442D02*
X178144328Y-125000585D01*
X178144328Y-125000585D02*
X178544328Y-124143442D01*
X178544328Y-124143442D02*
X178544328Y-125343442D01*
X179115757Y-125343442D02*
X179115757Y-124143442D01*
X180372900Y-125229157D02*
X180315757Y-125286300D01*
X180315757Y-125286300D02*
X180144329Y-125343442D01*
X180144329Y-125343442D02*
X180030043Y-125343442D01*
X180030043Y-125343442D02*
X179858614Y-125286300D01*
X179858614Y-125286300D02*
X179744329Y-125172014D01*
X179744329Y-125172014D02*
X179687186Y-125057728D01*
X179687186Y-125057728D02*
X179630043Y-124829157D01*
X179630043Y-124829157D02*
X179630043Y-124657728D01*
X179630043Y-124657728D02*
X179687186Y-124429157D01*
X179687186Y-124429157D02*
X179744329Y-124314871D01*
X179744329Y-124314871D02*
X179858614Y-124200585D01*
X179858614Y-124200585D02*
X180030043Y-124143442D01*
X180030043Y-124143442D02*
X180144329Y-124143442D01*
X180144329Y-124143442D02*
X180315757Y-124200585D01*
X180315757Y-124200585D02*
X180372900Y-124257728D01*
X180830043Y-125000585D02*
X181401472Y-125000585D01*
X180715757Y-125343442D02*
X181115757Y-124143442D01*
X181115757Y-124143442D02*
X181515757Y-125343442D01*
X182601471Y-125343442D02*
X182201471Y-124772014D01*
X181915757Y-125343442D02*
X181915757Y-124143442D01*
X181915757Y-124143442D02*
X182372900Y-124143442D01*
X182372900Y-124143442D02*
X182487185Y-124200585D01*
X182487185Y-124200585D02*
X182544328Y-124257728D01*
X182544328Y-124257728D02*
X182601471Y-124372014D01*
X182601471Y-124372014D02*
X182601471Y-124543442D01*
X182601471Y-124543442D02*
X182544328Y-124657728D01*
X182544328Y-124657728D02*
X182487185Y-124714871D01*
X182487185Y-124714871D02*
X182372900Y-124772014D01*
X182372900Y-124772014D02*
X181915757Y-124772014D01*
X182944328Y-124143442D02*
X183630043Y-124143442D01*
X183287185Y-125343442D02*
X183287185Y-124143442D01*
X184658614Y-125343442D02*
X183972900Y-125343442D01*
X184315757Y-125343442D02*
X184315757Y-124143442D01*
X184315757Y-124143442D02*
X184201471Y-124314871D01*
X184201471Y-124314871D02*
X184087186Y-124429157D01*
X184087186Y-124429157D02*
X183972900Y-124486300D01*
X154733333Y-89124619D02*
X154400000Y-88648428D01*
X154161905Y-89124619D02*
X154161905Y-88124619D01*
X154161905Y-88124619D02*
X154542857Y-88124619D01*
X154542857Y-88124619D02*
X154638095Y-88172238D01*
X154638095Y-88172238D02*
X154685714Y-88219857D01*
X154685714Y-88219857D02*
X154733333Y-88315095D01*
X154733333Y-88315095D02*
X154733333Y-88457952D01*
X154733333Y-88457952D02*
X154685714Y-88553190D01*
X154685714Y-88553190D02*
X154638095Y-88600809D01*
X154638095Y-88600809D02*
X154542857Y-88648428D01*
X154542857Y-88648428D02*
X154161905Y-88648428D01*
X155685714Y-89124619D02*
X155114286Y-89124619D01*
X155400000Y-89124619D02*
X155400000Y-88124619D01*
X155400000Y-88124619D02*
X155304762Y-88267476D01*
X155304762Y-88267476D02*
X155209524Y-88362714D01*
X155209524Y-88362714D02*
X155114286Y-88410333D01*
X126733333Y-92149380D02*
X126685714Y-92197000D01*
X126685714Y-92197000D02*
X126542857Y-92244619D01*
X126542857Y-92244619D02*
X126447619Y-92244619D01*
X126447619Y-92244619D02*
X126304762Y-92197000D01*
X126304762Y-92197000D02*
X126209524Y-92101761D01*
X126209524Y-92101761D02*
X126161905Y-92006523D01*
X126161905Y-92006523D02*
X126114286Y-91816047D01*
X126114286Y-91816047D02*
X126114286Y-91673190D01*
X126114286Y-91673190D02*
X126161905Y-91482714D01*
X126161905Y-91482714D02*
X126209524Y-91387476D01*
X126209524Y-91387476D02*
X126304762Y-91292238D01*
X126304762Y-91292238D02*
X126447619Y-91244619D01*
X126447619Y-91244619D02*
X126542857Y-91244619D01*
X126542857Y-91244619D02*
X126685714Y-91292238D01*
X126685714Y-91292238D02*
X126733333Y-91339857D01*
X127066667Y-91244619D02*
X127685714Y-91244619D01*
X127685714Y-91244619D02*
X127352381Y-91625571D01*
X127352381Y-91625571D02*
X127495238Y-91625571D01*
X127495238Y-91625571D02*
X127590476Y-91673190D01*
X127590476Y-91673190D02*
X127638095Y-91720809D01*
X127638095Y-91720809D02*
X127685714Y-91816047D01*
X127685714Y-91816047D02*
X127685714Y-92054142D01*
X127685714Y-92054142D02*
X127638095Y-92149380D01*
X127638095Y-92149380D02*
X127590476Y-92197000D01*
X127590476Y-92197000D02*
X127495238Y-92244619D01*
X127495238Y-92244619D02*
X127209524Y-92244619D01*
X127209524Y-92244619D02*
X127114286Y-92197000D01*
X127114286Y-92197000D02*
X127066667Y-92149380D01*
G04 #@! TO.C,VRC_CART1*
X109975000Y-74000000D02*
X109975000Y-83499600D01*
X109975000Y-83499600D02*
X187445000Y-83499600D01*
X187445000Y-74000000D02*
X109975000Y-74000000D01*
X187445000Y-83499600D02*
X187445000Y-74000000D01*
D11*
G04 #@! TO.C,CHRROM1*
X150790000Y-119129800D02*
X186470000Y-119129800D01*
X186470000Y-119129800D02*
X186470000Y-106209800D01*
X150790000Y-113669800D02*
X150790000Y-119129800D01*
X150790000Y-106209800D02*
X150790000Y-111669800D01*
X186470000Y-106209800D02*
X150790000Y-106209800D01*
X150790000Y-113669800D02*
G75*
G03*
X150790000Y-111669800I0J1000000D01*
G01*
G04 #@! TO.C,R3*
X172570000Y-93969800D02*
X172570000Y-94299800D01*
X172570000Y-96709800D02*
X172570000Y-96379800D01*
X179110000Y-93969800D02*
X172570000Y-93969800D01*
X179110000Y-94299800D02*
X179110000Y-93969800D01*
X179110000Y-96379800D02*
X179110000Y-96709800D01*
X179110000Y-96709800D02*
X172570000Y-96709800D01*
D12*
G04 #@! TO.C,U1*
X127435000Y-99619800D02*
X127435000Y-93019800D01*
X128755000Y-99619800D02*
X127435000Y-99619800D01*
X147125000Y-99619800D02*
X145805000Y-99619800D01*
X127435000Y-93019800D02*
X128755000Y-93019800D01*
X145805000Y-93019800D02*
X147125000Y-93019800D01*
X147125000Y-93019800D02*
X147125000Y-99619800D01*
D13*
X129760000Y-101374800D02*
G75*
G03*
X129760000Y-101374800I-100000J0D01*
G01*
D11*
G04 #@! TO.C,C1*
X150530000Y-102409800D02*
X150975000Y-102409800D01*
X150530000Y-102409800D02*
X150530000Y-96169800D01*
X152825000Y-102409800D02*
X153270000Y-102409800D01*
X153270000Y-102409800D02*
X153270000Y-96169800D01*
X150530000Y-96169800D02*
X150975000Y-96169800D01*
X152825000Y-96169800D02*
X153270000Y-96169800D01*
G04 #@! TO.C,R2*
X172630000Y-89719800D02*
X172630000Y-90049800D01*
X172630000Y-92459800D02*
X172630000Y-92129800D01*
X179170000Y-89719800D02*
X172630000Y-89719800D01*
X179170000Y-90049800D02*
X179170000Y-89719800D01*
X179170000Y-92129800D02*
X179170000Y-92459800D01*
X179170000Y-92459800D02*
X172630000Y-92459800D01*
G04 #@! TO.C,C2*
X110530000Y-102409800D02*
X110975000Y-102409800D01*
X110530000Y-102409800D02*
X110530000Y-96169800D01*
X112825000Y-102409800D02*
X113270000Y-102409800D01*
X113270000Y-102409800D02*
X113270000Y-96169800D01*
X110530000Y-96169800D02*
X110975000Y-96169800D01*
X112825000Y-96169800D02*
X113270000Y-96169800D01*
G04 #@! TO.C,PRGROM1*
X110530000Y-119129800D02*
X146210000Y-119129800D01*
X146210000Y-119129800D02*
X146210000Y-106209800D01*
X110530000Y-113669800D02*
X110530000Y-119129800D01*
X110530000Y-106209800D02*
X110530000Y-111669800D01*
X146210000Y-106209800D02*
X110530000Y-106209800D01*
X110530000Y-113669800D02*
G75*
G03*
X110530000Y-111669800I0J1000000D01*
G01*
G04 #@! TO.C,MAMICART1*
X110650000Y-126539800D02*
X186150000Y-126539800D01*
G04 #@! TO.C,R1*
X151630000Y-89669800D02*
X158170000Y-89669800D01*
X151630000Y-89999800D02*
X151630000Y-89669800D01*
X151630000Y-92079800D02*
X151630000Y-92409800D01*
X151630000Y-92409800D02*
X158170000Y-92409800D01*
X158170000Y-89669800D02*
X158170000Y-89999800D01*
X158170000Y-92409800D02*
X158170000Y-92079800D01*
G04 #@! TO.C,C3*
X130020000Y-90659800D02*
X130020000Y-90214800D01*
X130020000Y-90659800D02*
X123780000Y-90659800D01*
X130020000Y-88364800D02*
X130020000Y-87919800D01*
X130020000Y-87919800D02*
X123780000Y-87919800D01*
X123780000Y-90659800D02*
X123780000Y-90214800D01*
X123780000Y-88364800D02*
X123780000Y-87919800D01*
G04 #@! TD*
M02*
