M48
; DRILL file {KiCad 7.0.6} date Wed Jul 19 00:55:51 2023
; FORMAT={-:-/ absolute / metric / decimal}
; #@! TF.CreationDate,2023-07-19T00:55:51+09:00
; #@! TF.GenerationSoftware,Kicad,Pcbnew,7.0.6
; #@! TF.FileFunction,MixedPlating,1,2
FMAT,2
METRIC
; #@! TA.AperFunction,Plated,PTH,ViaDrill
T1C0.400
; #@! TA.AperFunction,Plated,PTH,ViaDrill
T2C0.500
; #@! TA.AperFunction,Plated,PTH,ViaDrill
T3C0.600
; #@! TA.AperFunction,Plated,PTH,ComponentDrill
T4C0.770
; #@! TA.AperFunction,Plated,PTH,ComponentDrill
T5C0.800
; #@! TA.AperFunction,Plated,PTH,ComponentDrill
T6C1.000
%
G90
G05
T1
X111.155Y-124.38
X113.088Y-125.402
X113.637Y-118.737
X114.292Y-103.627
X115.084Y-116.94
X115.45Y-125.09
X116.17Y-108.554
X116.65Y-86.907
X118.299Y-103.428
X120.16Y-107.96
X120.79Y-125.39
X121.167Y-106.976
X123.1Y-117.39
X123.165Y-118.673
X123.3Y-104.157
X129.428Y-109.425
X131.9Y-83.09
X132.1Y-106.99
X135.209Y-83.543
X136.011Y-107.114
X139.095Y-94.19
X141.2Y-113.69
X141.309Y-124.339
X142.901Y-103.49
X143.5Y-111.99
X144.893Y-97.86
X145.05Y-83.24
X145.05Y-90.59
X145.8Y-106.59
X147.03Y-79.67
X147.4Y-83.29
X147.65Y-122.09
X148.1Y-124.19
X148.4Y-125.79
X151.125Y-117.365
X151.25Y-77.49
X151.7Y-122.29
X152.7Y-89.94
X153.3Y-117.19
X153.5Y-106.59
X153.66Y-94.44
X154.2Y-79.74
X154.9Y-123.84
X155.05Y-83.34
X156.3Y-77.54
X157.4Y-106.79
X159.7Y-103.14
X160.0Y-94.49
X162.35Y-106.99
X162.6Y-83.44
X162.9Y-112.04
X163.65Y-103.34
X164.65Y-117.24
X164.85Y-79.49
X164.85Y-107.09
X165.25Y-83.44
X166.0Y-103.49
X166.085Y-117.84
X167.4Y-107.14
X167.45Y-117.84
X167.75Y-79.39
X167.9Y-83.44
X168.6Y-110.64
X170.05Y-107.14
X171.1Y-121.49
X171.55Y-118.34
X172.4Y-110.54
X184.2Y-82.89
X185.01Y-123.05
X185.1Y-106.99
X185.75Y-78.54
T2
X168.6Y-103.49
T3
X109.1Y-73.49
X109.2Y-125.99
X117.0Y-83.49
X117.0Y-117.29
X117.46Y-101.45
X119.02Y-109.73
X120.66Y-82.74
X120.68Y-95.28
X120.75Y-85.84
X121.6Y-109.59
X123.9Y-107.79
X125.4Y-116.29
X126.26Y-89.52
X127.99Y-88.02
X128.14Y-93.58
X129.64Y-83.33
X132.17Y-90.24
X137.3Y-118.09
X141.2Y-117.99
X143.5Y-117.14
X145.2Y-103.09
X145.4Y-95.49
X146.53Y-92.37
X149.1Y-100.09
X150.05Y-83.34
X150.3Y-102.89
X150.3Y-107.04
X187.4Y-125.89
X187.6Y-73.59
T4
X129.66Y-92.35
X129.66Y-100.29
X132.2Y-92.35
X132.2Y-100.29
X134.74Y-92.35
X134.74Y-100.29
X137.28Y-92.35
X137.28Y-100.29
X139.82Y-92.35
X139.82Y-100.29
X142.36Y-92.35
X142.36Y-100.29
X144.9Y-92.35
X144.9Y-100.29
T5
X111.86Y-105.05
X111.86Y-120.29
X111.9Y-96.79
X111.9Y-101.79
X114.4Y-105.05
X114.4Y-120.29
X116.94Y-105.05
X116.94Y-120.29
X119.48Y-105.05
X119.48Y-120.29
X122.02Y-105.05
X122.02Y-120.29
X124.4Y-89.29
X124.56Y-105.05
X124.56Y-120.29
X127.1Y-105.05
X127.1Y-120.29
X129.4Y-89.29
X129.64Y-105.05
X129.64Y-120.29
X132.18Y-105.05
X132.18Y-120.29
X134.72Y-105.05
X134.72Y-120.29
X137.26Y-105.05
X137.26Y-120.29
X139.8Y-105.05
X139.8Y-120.29
X142.34Y-105.05
X142.34Y-120.29
X144.88Y-105.05
X144.88Y-120.29
X151.09Y-91.04
X151.9Y-96.79
X151.9Y-101.79
X152.12Y-105.05
X152.12Y-120.29
X154.66Y-105.05
X154.66Y-120.29
X157.2Y-105.05
X157.2Y-120.29
X158.71Y-91.04
X159.74Y-105.05
X159.74Y-120.29
X162.28Y-105.05
X162.28Y-120.29
X164.82Y-105.05
X164.82Y-120.29
X167.36Y-105.05
X167.36Y-120.29
X169.9Y-105.05
X169.9Y-120.29
X172.03Y-95.34
X172.09Y-91.09
X172.44Y-105.05
X172.44Y-120.29
X174.98Y-105.05
X174.98Y-120.29
X177.52Y-105.05
X177.52Y-120.29
X179.65Y-95.34
X179.71Y-91.09
X180.06Y-105.05
X180.06Y-120.29
X182.6Y-105.05
X182.6Y-120.29
X185.14Y-105.05
X185.14Y-120.29
T6
X111.88Y-76.21
X111.88Y-81.29
X114.42Y-76.21
X114.42Y-81.29
X116.96Y-76.21
X116.96Y-81.29
X119.5Y-76.21
X119.5Y-81.29
X122.04Y-76.21
X122.04Y-81.29
X124.58Y-76.21
X124.58Y-81.29
X127.12Y-76.21
X127.12Y-81.29
X129.66Y-76.21
X129.66Y-81.29
X132.2Y-76.21
X132.2Y-81.29
X134.74Y-76.21
X134.74Y-81.29
X137.28Y-76.21
X137.28Y-81.29
X139.82Y-76.21
X139.82Y-81.29
X142.36Y-76.21
X142.36Y-81.29
X144.9Y-76.21
X144.9Y-81.29
X147.44Y-76.21
X147.44Y-81.29
X149.98Y-76.21
X149.98Y-81.29
X152.52Y-76.21
X152.52Y-81.29
X155.06Y-76.21
X155.06Y-81.29
X157.6Y-76.21
X157.6Y-81.29
X160.14Y-76.21
X160.14Y-81.29
X162.68Y-76.21
X162.68Y-81.29
X165.22Y-76.21
X165.22Y-81.29
X167.76Y-76.21
X167.76Y-81.29
X170.3Y-76.21
X170.3Y-81.29
X172.84Y-76.21
X172.84Y-81.29
X175.38Y-76.21
X175.38Y-81.29
X177.92Y-76.21
X177.92Y-81.29
X180.46Y-76.21
X180.46Y-81.29
X183.0Y-76.21
X183.0Y-81.29
X185.54Y-76.21
X185.54Y-81.29
T0
M30
